<svg id="SvgjsSvg1024" xmlns="http://www.w3.org/2000/svg" version="1.1" xmlns:xlink="http://www.w3.org/1999/xlink" xmlns:svgjs="http://svgjs.com/svgjs" width="51" height="50" viewBox="0 0 51 50"><title>Ellipse 1 copy 20</title><desc>Created with Avocode.</desc><defs id="SvgjsDefs1025"><clipPath id="SvgjsClipPath1029"><path id="SvgjsPath1028" d="M2534.08 2610C2547.93 2610 2559.16 2621.19 2559.16 2635C2559.16 2648.81 2547.93 2660 2534.08 2660C2520.23 2660 2509 2648.81 2509 2635C2509 2621.19 2520.23 2610 2534.08 2610Z " fill="#ffffff"></path></clipPath></defs><path id="SvgjsPath1026" d="M2534.08 2610C2547.93 2610 2559.16 2621.19 2559.16 2635C2559.16 2648.81 2547.93 2660 2534.08 2660C2520.23 2660 2509 2648.81 2509 2635C2509 2621.19 2520.23 2610 2534.08 2610Z " fill="#2f3336" fill-opacity="1" transform="matrix(1,0,0,1,-2509,-2610)"></path><path id="SvgjsPath1027" d="M2534.08 2610C2547.93 2610 2559.16 2621.19 2559.16 2635C2559.16 2648.81 2547.93 2660 2534.08 2660C2520.23 2660 2509 2648.81 2509 2635C2509 2621.19 2520.23 2610 2534.08 2610Z " fill-opacity="0" fill="#ffffff" stroke-dasharray="0" stroke-linejoin="round" stroke-linecap="round" stroke-opacity="1" stroke="#51b1f1" stroke-miterlimit="50" stroke-width="6" clip-path="url(&quot;#SvgjsClipPath1029&quot;)" transform="matrix(1,0,0,1,-2509,-2610)"></path><path id="SvgjsPath1030" d="M2548.67 2633.84L2546.64 2632.3900000000003L2542.95 2626.36C2542.81 2626.13 2542.5699999999997 2626 2542.2999999999997 2626L2525.6699999999996 2626C2525.2099999999996 2626 2524.8399999999997 2626.38 2524.8399999999997 2626.86C2524.8399999999997 2627.33 2525.2099999999996 2627.7200000000003 2525.6699999999996 2627.7200000000003C2525.7130599999996 2627.7200000000003 2525.7553399999997 2627.7165800000002 2525.7965999999997 2627.71L2537.3299999999995 2627.71L2537.3299999999995 2632.86C2537.3299999999995 2633.29 2537.7399999999993 2633.71 2538.1699999999996 2633.71L2545.6699999999996 2633.71L2547.3299999999995 2634.57L2547.3299999999995 2639.75L2546.4999999999995 2639.75C2546.1199999999994 2638.28 2544.7099999999996 2637.21 2543.1699999999996 2637.21C2541.6199999999994 2637.21 2540.2099999999996 2638.28 2539.8299999999995 2639.75L2534.8299999999995 2639.75C2534.4499999999994 2638.28 2533.0499999999993 2637.21 2531.4999999999995 2637.21C2529.9499999999994 2637.21 2528.5499999999997 2638.28 2528.1699999999996 2639.75L2525.6699999999996 2639.75C2525.2099999999996 2639.75 2524.8399999999997 2640.13 2524.8399999999997 2640.61C2524.8399999999997 2641.08 2525.2099999999996 2641.4700000000003 2525.6699999999996 2641.4700000000003C2525.7312299999994 2641.4700000000003 2525.79087 2641.46309 2525.8482499999996 2641.4500000000003L2528.1699999999996 2641.4500000000003C2528.1699999999996 2642.76 2529.8799999999997 2644.0000000000005 2531.4999999999995 2644.0000000000005C2533.1199999999994 2644.0000000000005 2534.8299999999995 2642.8400000000006 2534.8299999999995 2641.4500000000003L2539.8299999999995 2641.4500000000003C2540.1399999999994 2643.0200000000004 2541.5499999999993 2644.0000000000005 2543.1699999999996 2644.0000000000005C2544.7899999999995 2644.0000000000005 2546.1899999999996 2643.0200000000004 2546.4999999999995 2641.4500000000003L2548.1699999999996 2641.4500000000003C2548.5899999999997 2641.4500000000003 2548.9999999999995 2640.8900000000003 2548.9999999999995 2640.4600000000005L2548.9999999999995 2634.4900000000007C2548.9999999999995 2634.2300000000005 2548.8699999999994 2633.9800000000005 2548.6699999999996 2633.8400000000006ZM2539 2627.71L2541.5 2627.71L2544 2632L2539 2632ZM2527 2635L2527 2634.39853C2527.20072 2634.24251 2527.33 2633.99372 2527.33 2633.71C2527.33 2633.43219 2527.20072 2633.18582 2527 2633.03078L2527 2633L2526.95742 2633C2526.82645 2632.91149 2526.66932 2632.86 2526.5 2632.86C2526.33068 2632.86 2526.17355 2632.91149 2526.04258 2633L2520.30676 2633C2520.17083 2632.89949 2520.00576 2632.84 2519.83001 2632.84C2519.37001 2632.84 2519.00001 2633.23 2519.00001 2633.7000000000003C2519.00001 2634.1800000000003 2519.37001 2634.5600000000004 2519.83001 2634.5600000000004C2519.88806 2634.5600000000004 2519.94495 2634.5536800000004 2520.00001 2634.5416300000006L2520.00001 2635.0000000000005ZM2528 2629.44763L2528 2629L2523 2629L2523 2629.45774C2522.62215 2629.53793 2522.34 2629.8808299999996 2522.34 2630.2999999999997C2522.34 2630.7699999999995 2522.71 2631.16 2523.17 2631.16C2523.34966 2631.16 2523.51559 2631.1005099999998 2523.6511100000002 2631L2527.7102600000003 2631C2527.84279 2631.0887 2528.001 2631.14 2528.1700100000003 2631.14C2528.6300100000003 2631.14 2529.00001 2630.7599999999998 2529.00001 2630.2799999999997C2529.00001 2629.81 2528.6300100000003 2629.43 2528.1700100000003 2629.43C2528.1118600000004 2629.43 2528.05499 2629.4360699999997 2528.00001 2629.4476299999997ZM2531.49 2642.3C2530.5699999999997 2642.3 2529.8199999999997 2641.54 2529.8199999999997 2640.6000000000004C2529.8199999999997 2639.6600000000003 2530.5699999999997 2638.9000000000005 2531.49 2638.9000000000005C2532.41 2638.9000000000005 2533.16 2639.6600000000008 2533.16 2640.6000000000004C2533.16 2641.5400000000004 2532.41 2642.3 2531.49 2642.3ZM2543.18 2642.3C2542.25 2642.3 2541.5099999999998 2641.54 2541.5099999999998 2640.6000000000004C2541.5099999999998 2639.6600000000003 2542.2499999999995 2638.9000000000005 2543.18 2638.9000000000005C2544.0899999999997 2638.9000000000005 2544.8399999999997 2639.6600000000008 2544.8399999999997 2640.6000000000004C2544.8399999999997 2641.5400000000004 2544.0899999999997 2642.3 2543.18 2642.3ZM2526 2638L2526 2637.93038C2526.29478 2637.79949 2526.5 2637.49748 2526.5 2637.14C2526.5 2636.78997 2526.29478 2636.48431 2526 2636.3510699999997L2526 2635.9999999999995L2522 2635.9999999999995L2522 2636.4483299999997C2521.86106 2636.3427799999995 2521.68858 2636.2799999999997 2521.5 2636.2799999999997C2521.03 2636.2799999999997 2520.66 2636.6699999999996 2520.66 2637.14C2520.66 2637.62 2521.0299999999997 2638 2521.5 2638C2521.68858 2638 2521.86106 2637.93883 2522 2637.83456L2522 2638Z " fill="#51b1f1" fill-opacity="1" transform="matrix(1,0,0,1,-2509,-2610)"></path></svg>