<svg id="SvgjsSvg1022" xmlns="http://www.w3.org/2000/svg" version="1.1" xmlns:xlink="http://www.w3.org/1999/xlink" xmlns:svgjs="http://svgjs.com/svgjs" width="51" height="50" viewBox="0 0 51 50"><title>Ellipse 1 copy 22</title><desc>Created with Avocode.</desc><defs id="SvgjsDefs1023"><clipPath id="SvgjsClipPath1027"><path id="SvgjsPath1026" d="M3427.92 2610C3441.77 2610 3453 2621.19 3453 2635C3453 2648.81 3441.77 2660 3427.92 2660C3414.07 2660 3402.84 2648.81 3402.84 2635C3402.84 2621.19 3414.07 2610 3427.92 2610Z " fill="#ffffff"></path></clipPath></defs><path id="SvgjsPath1024" d="M3427.92 2610C3441.77 2610 3453 2621.19 3453 2635C3453 2648.81 3441.77 2660 3427.92 2660C3414.07 2660 3402.84 2648.81 3402.84 2635C3402.84 2621.19 3414.07 2610 3427.92 2610Z " fill="#2f3336" fill-opacity="1" transform="matrix(1,0,0,1,-3402,-2610)"></path><path id="SvgjsPath1025" d="M3427.92 2610C3441.77 2610 3453 2621.19 3453 2635C3453 2648.81 3441.77 2660 3427.92 2660C3414.07 2660 3402.84 2648.81 3402.84 2635C3402.84 2621.19 3414.07 2610 3427.92 2610Z " fill-opacity="0" fill="#ffffff" stroke-dasharray="0" stroke-linejoin="round" stroke-linecap="round" stroke-opacity="1" stroke="#d13f63" stroke-miterlimit="50" stroke-width="6" clip-path="url(&quot;#SvgjsClipPath1027&quot;)" transform="matrix(1,0,0,1,-3402,-2610)"></path><path id="SvgjsPath1028" d="M3429 2640C3429 2637.24 3431.22 2635 3434 2635C3436.76 2635 3439 2637.22 3439 2640C3439 2642.76 3436.78 2645 3434 2645C3431.24 2645 3429 2642.78 3429 2640ZM3417 2629C3417 2626.24 3419.22 2624 3422 2624C3424.76 2624 3427 2626.22 3427 2629C3427 2631.76 3424.78 2634 3422 2634C3419.24 2634 3417 2631.78 3417 2629ZM3434 2643C3435.67 2643 3437 2641.66 3437 2640C3437 2638.33 3435.66 2637 3434 2637C3432.33 2637 3431 2638.34 3431 2640C3431 2641.67 3432.34 2643 3434 2643ZM3422 2632C3423.67 2632 3425 2630.66 3425 2629C3425 2627.33 3423.66 2626 3422 2626C3420.33 2626 3419 2627.34 3419 2629C3419 2630.67 3420.34 2632 3422 2632ZM3418.6 2642.49L3436.0499999999997 2625.12C3436.4999999999995 2624.66 3437.18 2624.5899999999997 3437.5499999999997 2624.97C3437.9199999999996 2625.3399999999997 3437.8599999999997 2626.0099999999998 3437.3999999999996 2626.4599999999996L3420.0099999999998 2643.8899999999994C3419.5299999999997 2644.3699999999994 3418.83 2644.4399999999996 3418.4399999999996 2644.0499999999993C3418.0499999999997 2643.6599999999994 3418.1199999999994 2642.959999999999 3418.5999999999995 2642.4899999999993Z " fill="#d13f63" fill-opacity="1" transform="matrix(1,0,0,1,-3402,-2610)"></path></svg>