<svg id="SvgjsSvg1015" xmlns="http://www.w3.org/2000/svg" version="1.1" xmlns:xlink="http://www.w3.org/1999/xlink" xmlns:svgjs="http://svgjs.com/svgjs" width="51" height="50" viewBox="0 0 51 50"><title>Ellipse 1 copy 22</title><desc>Created with Avocode.</desc><defs id="SvgjsDefs1016"><clipPath id="SvgjsClipPath1020"><path id="SvgjsPath1019" d="M3129.58 2610C3143.43 2610 3154.66 2621.19 3154.66 2635C3154.66 2648.81 3143.43 2660 3129.58 2660C3115.73 2660 3104.5 2648.81 3104.5 2635C3104.5 2621.19 3115.73 2610 3129.58 2610Z " fill="#ffffff"></path></clipPath></defs><path id="SvgjsPath1017" d="M3129.58 2610C3143.43 2610 3154.66 2621.19 3154.66 2635C3154.66 2648.81 3143.43 2660 3129.58 2660C3115.73 2660 3104.5 2648.81 3104.5 2635C3104.5 2621.19 3115.73 2610 3129.58 2610Z " fill="#2f3336" fill-opacity="1" transform="matrix(1,0,0,1,-3104,-2610)"></path><path id="SvgjsPath1018" d="M3129.58 2610C3143.43 2610 3154.66 2621.19 3154.66 2635C3154.66 2648.81 3143.43 2660 3129.58 2660C3115.73 2660 3104.5 2648.81 3104.5 2635C3104.5 2621.19 3115.73 2610 3129.58 2610Z " fill-opacity="0" fill="#ffffff" stroke-dasharray="0" stroke-linejoin="round" stroke-linecap="round" stroke-opacity="1" stroke="#be51f1" stroke-miterlimit="50" stroke-width="6" clip-path="url(&quot;#SvgjsClipPath1020&quot;)" transform="matrix(1,0,0,1,-3104,-2610)"></path><path id="SvgjsPath1021" d="M3140.52 2644L3118.54 2644C3117.69 2644 3117 2643.34 3117 2642.53L3117 2627.57C3117 2626.7000000000003 3117.69 2626 3118.54 2626L3140.52 2626C3141.33 2626 3141.99 2626.7 3141.99 2627.57L3141.99 2642.53C3141.99 2643.34 3141.33 2644 3140.52 2644ZM3119 2628.28L3119 2638.01L3139.98 2638.03L3139.98 2639.98L3119 2639.98L3119 2641.71C3119 2641.86 3119.13 2641.9900000000002 3119.29 2641.9900000000002L3139.74 2641.9900000000002C3139.89 2641.9900000000002 3140.0099999999998 2641.86 3140.0099999999998 2641.7200000000003L3140.0099999999998 2628.28C3140.0099999999998 2628.13 3139.89 2628 3139.74 2628L3119.29 2628C3119.13 2628 3119 2628.13 3119 2628.28ZM3126.99789 2635.03653C3126.93386 2635.6007 3126.62358 2636.02 3126.25 2636.02L3120.82 2636.02C3120.4197400000003 2636.02 3120.09069 2635.6007 3120.0228300000003 2635.03653C3120.0906900000004 2634.45304 3120.4197400000003 2634.0099999999998 3120.82 2634.0099999999998L3126.25 2634.0099999999998C3126.62357 2634.0099999999998 3126.93385 2634.45304 3126.99789 2635.03653ZM3121.33 2629L3121.67 2629C3122.4 2629 3123 2629.6 3123 2630.33L3123 2630.67C3123 2631.4 3122.4 2632 3121.67 2632L3121.33 2632C3120.6 2632 3120 2631.4 3120 2630.67L3120 2630.33C3120 2629.6 3120.6 2629 3121.33 2629ZM3120.01 2635.26L3120.01 2634.82C3120.01 2634.89406 3120.0144 2634.96641 3120.0228300000003 2635.0365300000003C3120.0144000000005 2635.1090500000005 3120.01 2635.18373 3120.01 2635.26ZM3127.01 2635.26C3127.01 2635.18373 3127.00585 2635.1090400000003 3126.99789 2635.0365300000003C3127.00585 2634.96642 3127.01 2634.8940600000005 3127.01 2634.82ZM3135.99789 2635.03653C3135.93386 2635.6007 3135.62358 2636.02 3135.25 2636.02L3129.83 2636.02C3129.42085 2636.02 3129.09081 2635.6007 3129.02285 2635.03653C3129.09082 2634.45304 3129.42085 2634.0099999999998 3129.83 2634.0099999999998L3135.25 2634.0099999999998C3135.62357 2634.0099999999998 3135.93385 2634.45304 3135.99789 2635.03653ZM3129.01 2635.26L3129.01 2634.82C3129.01 2634.89406 3129.0144 2634.96641 3129.0228500000003 2635.0365300000003C3129.0144000000005 2635.1090500000005 3129.01 2635.18373 3129.01 2635.26ZM3136.01 2635.26C3136.01 2635.18373 3136.00585 2635.1090400000003 3135.99789 2635.0365300000003C3136.00585 2634.96642 3136.01 2634.8940600000005 3136.01 2634.82Z " fill="#be51f1" fill-opacity="1" transform="matrix(1,0,0,1,-3104,-2610)"></path></svg>