<svg id="SvgjsSvg1031" xmlns="http://www.w3.org/2000/svg" version="1.1" xmlns:xlink="http://www.w3.org/1999/xlink" xmlns:svgjs="http://svgjs.com/svgjs" width="51" height="50" viewBox="0 0 51 50"><title>Ellipse 1 copy 21</title><desc>Created with Avocode.</desc><defs id="SvgjsDefs1032"><clipPath id="SvgjsClipPath1036"><path id="SvgjsPath1035" d="M2831.42 2610C2845.27 2610 2856.5 2621.19 2856.5 2635C2856.5 2648.81 2845.27 2660 2831.42 2660C2817.57 2660 2806.34 2648.81 2806.34 2635C2806.34 2621.19 2817.57 2610 2831.42 2610Z " fill="#ffffff"></path></clipPath></defs><path id="SvgjsPath1033" d="M2831.42 2610C2845.27 2610 2856.5 2621.19 2856.5 2635C2856.5 2648.81 2845.27 2660 2831.42 2660C2817.57 2660 2806.34 2648.81 2806.34 2635C2806.34 2621.19 2817.57 2610 2831.42 2610Z " fill="#2f3336" fill-opacity="1" transform="matrix(1,0,0,1,-2806,-2610)"></path><path id="SvgjsPath1034" d="M2831.42 2610C2845.27 2610 2856.5 2621.19 2856.5 2635C2856.5 2648.81 2845.27 2660 2831.42 2660C2817.57 2660 2806.34 2648.81 2806.34 2635C2806.34 2621.19 2817.57 2610 2831.42 2610Z " fill-opacity="0" fill="#ffffff" stroke-dasharray="0" stroke-linejoin="round" stroke-linecap="round" stroke-opacity="1" stroke="#ffe943" stroke-miterlimit="50" stroke-width="6" clip-path="url(&quot;#SvgjsClipPath1036&quot;)" transform="matrix(1,0,0,1,-2806,-2610)"></path><path id="SvgjsPath1037" d="M2831.89 2648.99C2831.89 2648.99 2833.46 2647.3799999999997 2833.54 2647.2999999999997C2839.88 2640.0499999999997 2842 2637.43 2842 2631.68C2842 2625.5899999999997 2837.7 2621 2832 2621C2826.29 2621 2821.99 2625.59 2821.99 2631.68C2821.99 2637.43 2824.1099999999997 2640.04 2830.4599999999996 2647.2999999999997C2830.5399999999995 2647.3799999999997 2831.8899999999994 2648.99 2831.8899999999994 2648.99ZM2832 2623C2836.05 2623 2839.99 2627.3 2839.99 2631.72C2839.99 2635.64 2837.2299999999996 2639.9199999999996 2832 2645.99C2826.76 2639.9199999999996 2824 2635.64 2824 2631.72C2824 2627.2999999999997 2827.94 2623 2832 2623ZM2836.99 2630.99C2836.99 2628.24 2834.75 2626 2832 2626C2829.25 2626 2827.01 2628.24 2827.01 2630.99C2827.01 2633.75 2829.25 2635.99 2832 2635.99C2834.75 2635.99 2836.99 2633.75 2836.99 2630.99ZM2831.99 2634C2830.33 2634 2828.99 2632.65 2828.99 2631C2828.99 2629.34 2830.33 2628 2831.99 2628C2833.64 2628 2834.99 2629.34 2834.99 2631C2834.99 2632.65 2833.64 2634 2831.99 2634Z " fill="#ffe943" fill-opacity="1" transform="matrix(1,0,0,1,-2806,-2610)"></path></svg>